<svg id="Layer_1" data-name="Layer 1" xmlns="http://www.w3.org/2000/svg" width="818" height="291"><defs><style>.cls-1{fill:#333}.cls-3{fill:#fff}.cls-4{fill:#faa31b}.cls-5{fill:#ffa400}</style></defs><path class="cls-1" d="M443.897 203.882h-2v-23.59c1.329-18.342-9.79-35.562-25.86-40.127a1 1 0 0 1-.492-.316c-7.512-8.902-16.04-10.129-24.135-10.129a50.588 50.588 0 0 0-50.488 50.572v23.59h-2v-23.59a52.59 52.59 0 0 1 52.487-52.572c8.509 0 17.479 1.292 25.467 10.607 16.805 4.943 28.404 22.954 27.019 42.038z"/><path class="cls-1" d="M348.196 222.943c-8.839 0-13.706-3.815-13.706-10.742 0-6.124 5.004-10.742 11.64-10.742v2c-5.495 0-9.64 3.758-9.64 8.742 0 5.8 3.939 8.742 11.706 8.742zM434.333 222.943v-2c8.472 0 12.086-2.614 12.086-8.742a8.497 8.497 0 0 0-8.206-8.742h-2.362v-2h2.362a10.496 10.496 0 0 1 10.206 10.742c0 9.628-8.04 10.742-14.086 10.742zM371.84 213.602a4.03 4.03 0 1 1 4.03-4.03 4.035 4.035 0 0 1-4.03 4.03zm0-6.061a2.03 2.03 0 1 0 2.03 2.03 2.033 2.033 0 0 0-2.03-2.03zM411.453 213.602a4.03 4.03 0 1 1 4.03-4.03 4.035 4.035 0 0 1-4.03 4.03zm0-6.061a2.03 2.03 0 1 0 2.03 2.03 2.033 2.033 0 0 0-2.03-2.03zM391.719 240.115a15.877 15.877 0 0 1-8.398-2.569l1.17-1.622-.585.811.584-.812c.283.203 7 4.9 13.838 0l1.164 1.625a13.113 13.113 0 0 1-7.773 2.567zM316.437 291.006c-.032-1.946-.126-19.104 6.25-22.342 5.988-3.04 45.749-17.753 47.438-18.378l.693 1.876c-.412.152-41.34 15.297-47.224 18.285-4.469 2.269-5.239 15.586-5.157 20.526zM466.474 291.006l-2-.033c.079-4.94-.693-18.26-5.158-20.526-5.883-2.988-46.813-18.133-47.225-18.285l.693-1.876c1.69.625 41.451 15.338 47.439 18.378 6.377 3.238 6.282 20.396 6.25 22.342z"/><path class="cls-1" d="M360.901 244.882h-25.41a1 1 0 0 1-.833-1.555c2.098-3.147 4.876-17.131 5.769-22.254l1.97.344c-.12.694-2.73 15.556-5.27 21.465h23.774zM448.556 244.882h-26.624v-2h24.989c-2.565-5.992-5.309-21.373-5.436-22.091l1.97-.35c.939 5.299 3.834 19.738 5.933 22.886a1 1 0 0 1-.832 1.555z"/><path class="cls-1" d="M391.41 257.81c-25.056 0-45.441-21.544-45.441-48.026v-21.031a1 1 0 0 1 1-1h16.626l4.181-19.125a.971.971 0 0 1 1.015-.786.998.998 0 0 1 .952.861l2.66 19.05h10.895l1.83-12.518a1 1 0 0 1 .872-.849 1.013 1.013 0 0 1 1.046.622l5.097 12.745h21.495l4.78-28.44a1 1 0 0 1 .975-.834 1.026 1.026 0 0 1 .993.811l5.49 28.463h9.975a1 1 0 0 1 1 1v21.031c0 26.482-20.385 48.026-45.44 48.026zm-43.441-68.057v20.031c0 25.379 19.487 46.026 43.44 46.026 23.954 0 43.442-20.647 43.442-46.026v-20.031h-9.8a.998.998 0 0 1-.982-.81l-4.597-23.833-4.002 23.809a1 1 0 0 1-.987.834h-23.017a1 1 0 0 1-.929-.628l-3.968-9.923-1.418 9.696a1 1 0 0 1-.989.855h-12.63a1 1 0 0 1-.99-.862l-2.007-14.373-3.159 14.448a.999.999 0 0 1-.977.787z"/><path class="cls-1" d="M392.616 274.326c-14.872 0-28.33-6.92-35.126-18.06l1.707-1.04c6.435 10.547 19.24 17.1 33.42 17.1 13.473 0 25.974-6.08 32.623-15.868l1.654 1.124c-7.016 10.328-20.15 16.744-34.278 16.744z"/><path class="cls-1" d="M409.19 282.772c-8.295 0-16.925-8.294-17.373-8.73l1.396-1.433c.125.121 12.53 12.042 20.675 6.836 8.425-5.383 11.009-22.503 11.034-22.675l1.978.287c-.107.74-2.739 18.197-11.936 24.073a10.519 10.519 0 0 1-5.774 1.642zM373.629 282.772a10.514 10.514 0 0 1-5.774-1.642c-9.197-5.876-11.829-23.332-11.936-24.073l1.978-.287c.026.172 2.61 17.292 11.035 22.675 8.158 5.212 20.55-6.714 20.673-6.836l1.397 1.433c-.447.436-9.078 8.73-17.373 8.73zM366.07 233.912a19.523 19.523 0 1 1 19.524-19.523 19.545 19.545 0 0 1-19.524 19.523zm0-37.046a17.523 17.523 0 1 0 17.524 17.523 17.543 17.543 0 0 0-17.524-17.523zM416.187 233.912a19.523 19.523 0 1 1 19.523-19.523 19.545 19.545 0 0 1-19.523 19.523zm0-37.046a17.523 17.523 0 1 0 17.523 17.523 17.543 17.543 0 0 0-17.523-17.523z"/><path class="cls-1" d="M383.713 207.463l-1.122-1.655c.083-.058 8.448-5.613 16.865-.136l-1.092 1.676c-7.275-4.737-14.354-.085-14.651.115z"/><path d="M177.61 273.33h-2q0-2.517.058-5.021l1.999.046q-.057 2.481-.057 4.975zm425.367-2.493q-.03-2.491-.115-4.969l1.998-.07q.088 2.501.117 5.016zm-425.22-5.466l-2-.074q.093-2.515.244-5.016l1.996.12q-.15 2.477-.24 4.97zm424.981-2.487q-.12-2.49-.298-4.967l1.995-.143q.18 2.499.301 5.014zm-424.542-5.463l-1.994-.147q.185-2.51.428-5.004l1.99.194q-.24 2.47-.424 4.957zm424.01-2.48q-.214-2.483-.482-4.951l1.988-.218q.272 2.491.486 4.999zm-423.275-5.446l-1.988-.222q.279-2.501.616-4.985l1.981.269q-.332 2.46-.61 4.938zm422.449-2.472q-.305-2.474-.667-4.93l1.978-.291q.365 2.48.673 4.977zm-421.42-5.422l-1.977-.296q.372-2.489.8-4.958l1.971.342q-.424 2.446-.794 4.912zm420.297-2.458q-.399-2.461-.852-4.903l1.967-.365q.457 2.465.86 4.948zm-418.971-5.391l-1.966-.37q.465-2.473.987-4.925l1.956.416q-.517 2.429-.977 4.878zm417.555-2.442q-.49-2.444-1.035-4.867l1.95-.44q.552 2.447 1.046 4.913zm-415.936-5.353l-1.95-.443q.558-2.453 1.171-4.885l1.94.49q-.609 2.408-1.161 4.838zm414.225-2.422q-.582-2.424-1.218-4.825l1.934-.512q.641 2.424 1.23 4.87zm-412.314-5.305l-1.931-.517q.65-2.43 1.355-4.837l1.919.563q-.698 2.384-1.343 4.791zm410.311-2.4q-.672-2.4-1.398-4.775l1.912-.585q.734 2.399 1.412 4.82zm-408.109-5.25l-1.911-.59q.744-2.412 1.542-4.8l1.896.635q-.79 2.365-1.527 4.755zm405.817-2.373q-.762-2.372-1.577-4.72l1.889-.655q.823 2.369 1.592 4.763zm-403.318-5.218l-1.888-.66q.834-2.381 1.723-4.737l1.87.706q-.879 2.333-1.705 4.691zm400.742-2.315q-.851-2.34-1.755-4.655l1.863-.728q.913 2.337 1.77 4.7zM192.3 195.502l-1.861-.732q.923-2.346 1.899-4.665l1.844.776q-.967 2.297-1.882 4.621zm395.098-2.257q-.934-2.298-1.92-4.57l1.834-.797q.996 2.294 1.94 4.613zm-392.036-5.116l-1.832-.802q1.01-2.308 2.074-4.588l1.812.844q-1.052 2.26-2.054 4.546zm388.911-2.174q-1.02-2.26-2.092-4.496l1.802-.865q1.083 2.256 2.113 4.539zM198.7 180.88l-1.8-.87q1.096-2.268 2.243-4.506l1.78.913q-1.136 2.217-2.223 4.463zm382.176-2.094q-1.106-2.223-2.26-4.417l1.769-.932q1.166 2.214 2.282 4.458zm-378.569-5.022l-1.766-.938q1.18-2.223 2.41-4.416l1.744.978q-1.218 2.173-2.388 4.376zm374.902-2.019q-1.188-2.181-2.426-4.331l1.735-.997q1.248 2.17 2.447 4.371zm-371.03-4.955l-1.73-1.003q1.262-2.178 2.573-4.322l1.707 1.044q-1.3 2.123-2.55 4.28zm367.103-1.947q-1.27-2.136-2.587-4.24l1.696-1.061q1.328 2.123 2.61 4.278zm-362.975-4.874l-1.691-1.067q1.343-2.128 2.733-4.22l1.666 1.106q-1.377 2.074-2.708 4.181zm358.79-1.88q-1.35-2.087-2.744-4.14l1.654-1.124q1.408 2.073 2.77 4.18zm-354.41-4.78l-1.65-1.13q1.42-2.075 2.888-4.114l1.623 1.168q-1.453 2.02-2.861 4.076zm349.972-1.814q-1.424-2.036-2.896-4.037l1.611-1.185q1.485 2.02 2.924 4.075zm-345.347-4.676l-1.607-1.19q1.496-2.02 3.04-4.003l1.577 1.228q-1.528 1.964-3.01 3.965zm340.669-1.751q-1.502-1.981-3.047-3.927l1.566-1.244q1.56 1.964 3.074 3.964zm-335.807-4.56l-1.562-1.25q1.57-1.961 3.186-3.885l1.532 1.286q-1.6 1.905-3.156 3.85zm330.889-1.689q-1.575-1.925-3.192-3.813l1.52-1.301q1.632 1.904 3.22 3.848zm-325.796-4.435l-1.514-1.307q1.643-1.902 3.328-3.764l1.482 1.342q-1.67 1.845-3.296 3.73zm320.649-1.63q-1.645-1.865-3.332-3.692l1.469-1.357q1.703 1.844 3.363 3.726zm-315.334-4.298l-1.464-1.363q1.711-1.838 3.464-3.636l1.432 1.397q-1.737 1.78-3.432 3.602zm309.962-1.572q-1.715-1.802-3.469-3.567l1.418-1.41q1.77 1.78 3.5 3.6zm-304.43-4.153l-1.413-1.416q1.778-1.772 3.596-3.504l1.38 1.448q-1.802 1.716-3.564 3.472zm298.842-1.515q-1.778-1.739-3.598-3.436l1.364-1.463q1.837 1.713 3.632 3.47zm-293.104-4l-1.358-1.467q1.841-1.705 3.722-3.367l1.325 1.5q-1.864 1.645-3.689 3.335zm287.307-1.458q-1.843-1.672-3.724-3.3l1.308-1.513q1.9 1.644 3.76 3.331zm-281.368-3.837l-1.304-1.516q1.903-1.636 3.845-3.226l1.267 1.547q-1.923 1.576-3.808 3.195zm275.373-1.403q-1.904-1.603-3.847-3.161l1.252-1.56q1.96 1.572 3.882 3.19zM257.92 106.85l-1.246-1.564q1.963-1.563 3.961-3.08l1.21 1.593q-1.98 1.503-3.925 3.051zm263.057-1.349q-1.965-1.53-3.964-3.015l1.193-1.606q2.017 1.499 4 3.044zm-256.745-3.488l-1.187-1.61q2.018-1.487 4.071-2.928l1.15 1.637q-2.034 1.427-4.034 2.901zm250.37-1.293q-2.019-1.456-4.073-2.866l1.131-1.65q2.074 1.424 4.112 2.894zm-243.885-3.303l-1.126-1.653q2.072-1.41 4.177-2.774l1.087 1.679q-2.085 1.35-4.138 2.748zm237.336-1.238q-2.074-1.38-4.18-2.713l1.068-1.69q2.127 1.345 4.22 2.738zm-230.686-3.112l-1.063-1.694q2.12-1.332 4.276-2.615l1.023 1.718q-2.133 1.272-4.236 2.591zm223.968-1.182q-2.124-1.301-4.28-2.555l1.007-1.728q2.175 1.264 4.318 2.578zm-217.163-2.915l-.999-1.733q2.168-1.25 4.369-2.452l.959 1.755q-2.18 1.19-4.329 2.43zm210.29-1.125q-2.171-1.221-4.373-2.394l.94-1.765q2.222 1.183 4.413 2.416zm-203.339-2.714l-.934-1.769q2.213-1.168 4.456-2.286l.892 1.79q-2.221 1.107-4.414 2.265zm196.314-1.068q-2.217-1.138-4.462-2.227l.873-1.8q2.266 1.099 4.503 2.25zm-189.227-2.507l-.867-1.802q2.254-1.084 4.537-2.117l.824 1.822q-2.26 1.022-4.494 2.097zm182.062-1.007q-2.255-1.055-4.543-2.059l.805-1.83q2.307 1.012 4.586 2.077zm-174.85-2.298l-.798-1.833q2.291-.998 4.611-1.944l.756 1.851q-2.298.937-4.568 1.926zm167.558-.945q-2.296-.97-4.62-1.887l.735-1.86q2.345.925 4.663 1.904zm-160.217-2.09l-.729-1.863q2.335-.914 4.697-1.776l.686 1.879q-2.34.854-4.654 1.76zm152.803-.878q-2.333-.882-4.69-1.711l.664-1.887q2.379.837 4.733 1.727zm-145.337-1.885l-.659-1.889q2.368-.826 4.763-1.598l.613 1.904q-2.371.764-4.717 1.583zm137.813-.8q-2.364-.793-4.753-1.533l.592-1.91q2.41.745 4.798 1.546zm-130.25-1.68l-.586-1.912q2.397-.736 4.817-1.417l.543 1.925q-2.399.676-4.774 1.405zm122.639-.716q-2.384-.701-4.79-1.348l.52-1.931q2.428.652 4.834 1.36zm-114.985-1.476l-.515-1.932q2.423-.646 4.869-1.236l.469 1.945q-2.423.584-4.823 1.223zm107.306-.626q-2.407-.61-4.836-1.166l.445-1.95q2.453.56 4.883 1.178zm-99.576-1.277l-.442-1.95q2.445-.554 4.913-1.052l.394 1.961q-2.443.493-4.865 1.04zM435 65.345q-2.429-.52-4.878-.984l.371-1.965q2.473.468 4.925.993zm-84.03-1.075l-.366-1.966q2.463-.461 4.946-.866l.322 1.974q-2.46.401-4.901.858zm76.217-.443q-2.448-.428-4.913-.8l.3-1.977q2.488.375 4.956.807zm-68.366-.872l-.293-1.979q2.479-.368 4.976-.679l.248 1.985q-2.474.308-4.93.673zm60.496-.351q-2.46-.337-4.936-.616l.224-1.987q2.5.282 4.984.621zm-52.601-.67l-.219-1.99q2.49-.273 4.997-.491l.174 1.992q-2.484.216-4.952.488zm44.698-.26q-2.473-.243-4.958-.43l.15-1.994q2.51.188 5.003.434zm-36.77-.466l-.145-1.995q2.498-.181 5.013-.306l.1 1.997q-2.492.125-4.968.304zm28.833-.166q-2.479-.152-4.97-.246l.076-1.999q2.515.096 5.017.249zm-20.883-.264l-.07-2q2.498-.088 5.013-.12l.025 2q-2.49.032-4.968.12zm12.928-.075q-2.48-.06-4.974-.063l.002-2q2.518.003 5.021.064z" fill="#00a8d6"/><rect class="cls-3" x="352.264" y="15.007" width="90.797" height="70.68" rx="2"/><path class="cls-1" d="M441.061 17.007v66.68h-86.797v-66.68h86.797m0-2h-86.797a2 2 0 0 0-2 2v66.68a2 2 0 0 0 2 2h86.797a2 2 0 0 0 2-2v-66.68a2 2 0 0 0-2-2z"/><path class="cls-4" d="M385.263 43.784l-.491 2.208-1.063 2.208-1.226 1.718-1.309.96 2.638 3.926 1.696-.798 2.372-3.271 1.554-4.007.736-3.189-4.907.245z"/><path class="cls-1" d="M376.15 31.031a12.306 12.306 0 1 1-12.306 12.306 12.32 12.32 0 0 1 12.306-12.306m0-2a14.306 14.306 0 1 0 14.306 14.306 14.306 14.306 0 0 0-14.306-14.306z"/><path class="cls-1" d="M376.15 35.85a7.486 7.486 0 1 1-7.486 7.487 7.495 7.495 0 0 1 7.486-7.486m0-2a9.486 9.486 0 1 0 9.486 9.486 9.486 9.486 0 0 0-9.486-9.486z"/><path class="cls-1" d="M389.454 44.334h-3.925a1 1 0 0 1 0-2h3.925a1 1 0 0 1 0 2zM375.145 29.78h2v4.753h-2z"/><path class="cls-1" transform="rotate(-45.317 378.128 31.845)" d="M375.54 30.845h5.175v2h-5.175z"/><path class="cls-1" transform="rotate(-44.367 380.847 32.99)" d="M378.274 31.99h5.147v2h-5.147z"/><path class="cls-1" transform="rotate(-45.692 383.3 34.339)" d="M380.901 33.339h4.8v2.001h-4.8z"/><path class="cls-1" transform="rotate(-45.653 385.181 36.26)" d="M382.665 35.261h5.032v1.999h-5.032z"/><path class="cls-1" transform="rotate(-45 386.633 38.612)" d="M384.06 37.612h5.146v2h-5.146z"/><path class="cls-1" transform="rotate(-44.683 387.604 41.423)" d="M385.089 40.423h5.031v2h-5.031z"/><path class="cls-1" transform="rotate(-34.432 382.278 52.882)" d="M381.278 50.279h2.001v5.205h-2.001z"/><g><path class="cls-4" d="M431.976 70.362a4.766 4.766 0 1 0-8.594 2.84l.001.002c.065.087 3.826 4.765 3.826 4.765l3.828-4.766h-.004a4.707 4.707 0 0 0 .943-2.84zm-4.767 1.058a1.093 1.093 0 1 1 1.094-1.093 1.093 1.093 0 0 1-1.094 1.093z"/><path class="cls-1" d="M427.209 78.97a.999.999 0 0 1-.78-.374 1974.08 1974.08 0 0 1-3.85-4.796 5.777 5.777 0 1 1 9.309-.071.883.883 0 0 1-.072.1l-3.828 4.766a.998.998 0 0 1-.779.374zm0-12.374a3.77 3.77 0 0 0-3.766 3.766 3.73 3.73 0 0 0 .742 2.244c.103.133 1.941 2.42 3.024 3.767l2.998-3.734.024-.035a3.697 3.697 0 0 0 .745-2.242 3.77 3.77 0 0 0-3.767-3.766zm0 5.824a2.093 2.093 0 1 1 2.094-2.093 2.095 2.095 0 0 1-2.094 2.093zm0-2.186a.093.093 0 0 0-.093.093c.001.104.187.102.187 0a.094.094 0 0 0-.094-.093zM375.847 64.302v13.172h-13.172V64.302h13.172m2-2h-17.172v17.172h17.172V62.302zM395.216 64.302v13.172h-13.172V64.302h13.172m2-2h-17.172v17.172h17.172V62.302zM414.427 64.075v13.172h-13.172V64.075h13.172m2-2h-17.172v17.172h17.172V62.075z"/><path class="cls-1" d="M433.795 64.075v13.172h-13.171V64.075h13.171m2-2h-17.171v17.172h17.171V62.075zM362.31 78.65a1 1 0 0 1-.572-1.82c.02-.015 2.064-1.439 3.828-2.99a15.683 15.683 0 0 1 5.64-2.96l.19-.066a29.433 29.433 0 0 0 4.533-2.63c.332-.22.587-.388.725-.471a1 1 0 1 1 1.035 1.71c-.125.077-.356.23-.658.43a28.204 28.204 0 0 1-4.982 2.852l-.193.066a14.032 14.032 0 0 0-4.97 2.57c-1.852 1.63-3.918 3.07-4.005 3.131a1 1 0 0 1-.57.179z"/><path class="cls-1" d="M372.127 75.918a3.404 3.404 0 0 1-1.67-.392 3.915 3.915 0 0 0-1.978-.652 3.646 3.646 0 0 0-1.293.153l-.674-1.883a5.509 5.509 0 0 1 2.115-.265 5.834 5.834 0 0 1 2.807.902 3.01 3.01 0 0 0 2.288-.248l.233-.124a3.115 3.115 0 0 1 1.9-.535l.156.012a2.958 2.958 0 0 1 1.636.657l-1.058 1.696a6.61 6.61 0 0 0-.604-.35c-.029-.004-.07-.005-.122-.008l-.194-.016c-.142-.015-.237.023-.772.308l-.243.13a5.773 5.773 0 0 1-2.527.615z"/><path class="cls-1" d="M365.99 75.955l-1.817-.838a5.49 5.49 0 0 0 .71-2.166c-.06-.035-.152-.081-.223-.118a3.408 3.408 0 0 1-1.63-1.469 2.353 2.353 0 0 1-.025-1.94 1.547 1.547 0 0 0 .118-.86c-.494-1.806-1.725-1.857-1.736-1.858l.049-1.999a4.07 4.07 0 0 1 3.617 3.33 3.34 3.34 0 0 1-.138 1.98 2.274 2.274 0 0 0-.111.442 1.57 1.57 0 0 0 .76.59 3.24 3.24 0 0 1 .68.422c1.14.986.55 2.737-.255 4.484zM368.692 70.787a1.72 1.72 0 0 1-1.192-.433 2.173 2.173 0 0 1-.594-1.673 2.878 2.878 0 0 1 .027-.365c.017-.008-.004-.067-.108-.212a1.723 1.723 0 0 1-.249-2.061 1.521 1.521 0 0 1 1.602-.671l.83.157a1.004 1.004 0 0 0 .238-.02 1.632 1.632 0 0 1 1.576-.79c.212.026 2.075.294 2.253 1.49.161 1.087-.87 1.604-1.424 1.88a1.366 1.366 0 0 0-.516.521l-.14.195c-.022.04-.055.12-.093.209a2.506 2.506 0 0 1-1.978 1.761q-.12.012-.232.012zm.094-3.272a1.855 1.855 0 0 1 .137 1c.062-.11.114-.229.146-.302a2.916 2.916 0 0 1 .325-.608l.079-.11a2.868 2.868 0 0 1-.687.02z"/><path class="cls-1" transform="rotate(-43.875 381.745 65.893)" d="M380.745 65.252h1.999v1.284h-1.999z"/><path class="cls-1" transform="rotate(-43.87 383.27 67.48)" d="M382.27 66.7h1.999v1.558h-1.999z"/><path class="cls-1" d="M385.24 70.528a1.001 1.001 0 0 1-.72-.306l-.891-.926 1.441-1.387.471.49.65-.191.562 1.92-1.232.36a1.011 1.011 0 0 1-.28.04zM387.998 69.764l-.56-1.92 2.49-.728.561 1.92zm3.737-1.092l-.56-1.92 2.491-.728.56 1.92z"/><path class="cls-1" transform="rotate(-16.276 395.811 66.441)" d="M395.166 65.441h1.284v2h-1.284z"/><g><path class="cls-1" transform="rotate(-47.744 395.949 76.492)" d="M394.948 75.85h2.001v1.284h-2.001z"/><path class="cls-1" transform="rotate(-47.723 394.081 74.794)" d="M393.081 73.853h2v1.882h-2z"/><path class="cls-1" d="M392.015 74.268l-.535-.486-.694.202-.56-1.92 1.232-.36a.998.998 0 0 1 .953.22l.95.864zM383.313 76.168l-.561-1.92 2.491-.727.56 1.92zm3.737-1.092l-.56-1.92 2.49-.727.561 1.92z"/><path class="cls-1" transform="rotate(-16.33 381.17 75.752)" d="M380.529 74.752h1.283v2.001h-1.283z"/></g><circle class="cls-1" cx="404.462" cy="67.125" r="1.211"/><circle class="cls-1" cx="411.432" cy="69.547" r="1.211"/><circle class="cls-1" cx="406.036" cy="74.842" r="1.211"/></g><g><path class="cls-1" d="M404.173 52.731l1.592.01-.015 2.537-1.592-.01.015-2.537m-.995-2.006a1 1 0 0 0-1 .994l-.026 4.537a1 1 0 0 0 .994 1.006l3.593.021h.006a1 1 0 0 0 1-.994l.026-4.537a1 1 0 0 0-.994-1.005l-3.593-.022zM422.559 50.454l1.592.01-.028 4.85-1.593-.01.029-4.85m-.995-2.006a1 1 0 0 0-1 .994l-.04 6.85a1 1 0 0 0 .994 1.007l3.593.021h.006a1 1 0 0 0 1-.994l.04-6.851a1 1 0 0 0-.994-1.006l-3.593-.021zM430.83900000000006 42.77l1.593.009-.074 12.552-1.593-.01.074-12.552m-.994-2.005a1 1 0 0 0-1 .994l-.086 14.552a1 1 0 0 0 .994 1.006l3.593.021h.006a1 1 0 0 0 1-.994l.086-14.552a1 1 0 0 0-.994-1.006l-3.593-.021zM413.425 47.79l1.593.01-.044 7.496-1.593-.01.044-7.495m-.994-2.006a1 1 0 0 0-1 .994l-.056 9.496a1 1 0 0 0 .994 1.006l3.593.02h.006a1 1 0 0 0 1-.993l.056-9.496a1 1 0 0 0-.994-1.006l-3.593-.021z"/><path class="cls-1" transform="rotate(-40.049 409.564 41.11)" d="M405.634 40.11h7.859v2h-7.859z"/><path class="cls-1" transform="rotate(-56.963 418.491 40.44)" d="M417.491 37.48h2v5.92h-2z"/><path class="cls-1" transform="rotate(-49.951 427.325 37.597)" d="M423.174 36.597h8.301v2h-8.301z"/><circle class="cls-4" cx="404.939" cy="45.107" r="3.013"/><path class="cls-1" d="M404.94 44.095a1.013 1.013 0 1 1-1.014 1.012 1.014 1.014 0 0 1 1.013-1.012m0-2a3.013 3.013 0 1 0 3.013 3.012 3.013 3.013 0 0 0-3.013-3.012z"/><circle class="cls-4" cx="423.324" cy="42.782" r="3.013"/><path class="cls-1" d="M423.324 41.77a1.013 1.013 0 1 1-1.013 1.012 1.014 1.014 0 0 1 1.013-1.012m0-2a3.013 3.013 0 1 0 3.013 3.012 3.013 3.013 0 0 0-3.013-3.012z"/><circle class="cls-4" cx="431.584" cy="32.683" r="3.013"/><path class="cls-1" d="M431.584 31.67a1.013 1.013 0 1 1-1.012 1.013 1.014 1.014 0 0 1 1.012-1.013m0-2a3.013 3.013 0 1 0 3.013 3.013 3.013 3.013 0 0 0-3.013-3.013z"/><circle class="cls-4" cx="414.185" cy="37.434" r="3.013"/><path class="cls-1" d="M414.185 36.421a1.013 1.013 0 1 1-1.013 1.013 1.014 1.014 0 0 1 1.013-1.013m0-2a3.013 3.013 0 1 0 3.013 3.013 3.013 3.013 0 0 0-3.013-3.013zM442.126 25.057h-88.56a1 1 0 0 1 0-2h88.56a1 1 0 0 1 0 2zM359.004 20.974h-1.598a1 1 0 0 1 0-2h1.598a1 1 0 0 1 0 2zM364.151 20.974h-1.597a1 1 0 0 1 0-2h1.597a1 1 0 0 1 0 2zM369.299 20.974h-1.597a1 1 0 0 1 0-2h1.597a1 1 0 0 1 0 2z"/></g><g><path class="cls-3" d="M651.79 271.045l-1.929 5.887c-.286.873-2.135 1.573-4.134 1.573h-86.541c-2 0-3.849-.7-4.135-1.573l-1.928-5.887z"/><path class="cls-1" d="M649.03 273.045l-.977 2.984a5.106 5.106 0 0 1-2.326.476h-86.541a5.105 5.105 0 0 1-2.326-.476l-.977-2.984h93.147m2.76-2h-98.667l1.928 5.887c.286.873 2.136 1.573 4.135 1.573h86.541c1.999 0 3.848-.7 4.135-1.573l1.928-5.887z"/><g><path class="cls-3" d="M566.149 270.451v-46.508h72.614v46.761"/><path class="cls-1" d="M638.763 271.705a1 1 0 0 1-1-1v-45.762h-70.614v45.509a1 1 0 0 1-2 0v-46.51a1 1 0 0 1 1-1h72.614a1 1 0 0 1 1 1v46.763a1 1 0 0 1-1 1z"/></g></g><path class="cls-4" d="M587.599 261.858a1 1 0 0 1-.906-.575l-8.29-17.674-8.124 13.61a1 1 0 0 1-1.576.183l-8.575-8.852-6.59 3.363-.909-1.782 7.249-3.698a.997.997 0 0 1 1.172.195l8.181 8.445 8.42-14.106a.987.987 0 0 1 .909-.486 1 1 0 0 1 .855.574l8.031 17.123 8.293-24.63a.999.999 0 0 1 .898-.68.986.986 0 0 1 .96.587l8.426 18.605 8.068-9.83a1 1 0 0 1 1.441-.11l8.223 7.38 8.45-12.894a1 1 0 0 1 .828-.451 1.1 1.1 0 0 1 .836.439l8.863 13.073 8.532-5.284 1.052 1.7-9.346 5.79a1 1 0 0 1-1.355-.29l-8.56-12.625-8.266 12.612a1 1 0 0 1-1.504.196l-8.31-7.46-8.426 10.266a.989.989 0 0 1-.904.357.999.999 0 0 1-.78-.579l-8.042-17.756-8.277 24.584a1 1 0 0 1-.89.679l-.057.001z"/><g><path class="cls-1" d="M530.198 85.606a5.097 5.097 0 1 1 5.098-5.097 5.103 5.103 0 0 1-5.098 5.097zm0-8.195a3.097 3.097 0 1 0 3.098 3.098 3.101 3.101 0 0 0-3.098-3.098z"/><path class="cls-1" transform="rotate(-89.72 530.148 94.87)" d="M519.885 93.87h20.528v2h-20.528z"/><path class="cls-3" d="M561.278 146.756l7.11-.009a14.021 14.021 0 0 0-1.864-27.912 9.594 9.594 0 0 0-16.366-6.796 17.871 17.871 0 0 0-32.488 14.9 9.937 9.937 0 0 0 .327 19.868l9.145-.01z"/><path class="cls-1" d="M517.997 147.807a10.939 10.939 0 0 1-1.764-21.734 18.882 18.882 0 0 1 17.714-25.38 18.947 18.947 0 0 1 16.519 9.746 10.597 10.597 0 0 1 17.014 7.426 15.022 15.022 0 0 1 1.04 29.874 1.011 1.011 0 0 1-.132.009zm15.95-45.114a16.876 16.876 0 0 0-15.367 23.832 1 1 0 0 1-.878 1.413 8.937 8.937 0 0 0 .295 17.87l43.28-.053 7.042-.007a13.021 13.021 0 0 0-1.795-25.914 1 1 0 0 1-1-1 8.594 8.594 0 0 0-14.66-6.086 1.001 1.001 0 0 1-1.613-.288 16.932 16.932 0 0 0-15.304-9.767z"/><path class="cls-1" transform="rotate(-54.339 575.878 94.083)" d="M554.085 93.083h43.586v2h-43.586z"/><path class="cls-1" d="M501.457 159.484a5.095 5.095 0 1 1 3.604-1.49 5.082 5.082 0 0 1-3.604 1.49zm0-8.19a3.095 3.095 0 1 0 2.19.905 3.089 3.089 0 0 0-2.19-.905z"/><path class="cls-1" transform="rotate(-44.426 507.839 148.078)" d="M502.961 147.078h9.757v2.001h-9.757z"/><path class="cls-1" d="M600.009 137.019a4.633 4.633 0 1 1 5.097-4.61 4.878 4.878 0 0 1-5.097 4.61zm0-7.219a2.648 2.648 0 1 0 3.097 2.61 2.888 2.888 0 0 0-3.097-2.61z"/><path class="cls-1" transform="rotate(-89.673 588.211 132.366)" d="M587.211 124.665h2v15.401h-2z"/><path class="cls-1" d="M546.339 146.621h2v21.795h-2z"/><circle class="cls-4" cx="547.88" cy="172.44" r="6.625"/><path class="cls-1" d="M547.88 180.064a7.625 7.625 0 1 1 7.624-7.624 7.634 7.634 0 0 1-7.624 7.624zm0-13.249a5.625 5.625 0 1 0 5.624 5.625 5.631 5.631 0 0 0-5.624-5.625z"/><g><circle class="cls-4" cx="588.875" cy="76.411" r="6.625"/><path class="cls-1" d="M588.875 84.036a7.625 7.625 0 1 1 7.625-7.625 7.634 7.634 0 0 1-7.625 7.625zm0-13.25a5.625 5.625 0 1 0 5.625 5.625 5.631 5.631 0 0 0-5.625-5.624z"/></g></g><g><rect class="cls-4" x="202.856" y="94.87" width="4.932" height="4.932" rx="1"/><path class="cls-1" d="M206.788 100.801h-2.932a2.002 2.002 0 0 1-2-2V95.87a2.002 2.002 0 0 1 2-2h2.932a2.002 2.002 0 0 1 2 2V98.8a2.002 2.002 0 0 1-2 2zm-2.932-4.931V98.8h2.933l-.001-2.931z"/><rect class="cls-4" x="212.18" y="94.87" width="4.932" height="4.932" rx="1"/><path class="cls-1" d="M216.112 100.801h-2.931a2.002 2.002 0 0 1-2-2V95.87a2.002 2.002 0 0 1 2-2h2.931a2.002 2.002 0 0 1 2 2V98.8a2.002 2.002 0 0 1-2 2zm-2.931-4.931V98.8h2.933l-.002-2.931z"/><rect class="cls-4" x="221.505" y="94.87" width="4.932" height="4.932" rx="1"/><path class="cls-1" d="M225.437 100.801h-2.932a2.002 2.002 0 0 1-2-2V95.87a2.002 2.002 0 0 1 2-2h2.932a2.002 2.002 0 0 1 2 2V98.8a2.002 2.002 0 0 1-2 2zm-2.932-4.931V98.8h2.933l-.001-2.931z"/><rect class="cls-4" x="230.83" y="94.87" width="4.932" height="4.932" rx="1"/><path class="cls-1" d="M234.761 100.801h-2.931a2.002 2.002 0 0 1-2-2V95.87a2.002 2.002 0 0 1 2-2h2.931a2.002 2.002 0 0 1 2 2V98.8a2.002 2.002 0 0 1-2 2zm-2.931-4.931V98.8h2.933l-.002-2.931z"/><rect class="cls-4" x="240.154" y="94.87" width="4.932" height="4.932" rx="1"/><path class="cls-1" d="M244.086 100.801h-2.932a2.002 2.002 0 0 1-2-2V95.87a2.002 2.002 0 0 1 2-2h2.932a2.002 2.002 0 0 1 2 2V98.8a2.002 2.002 0 0 1-2 2zm-2.932-4.931V98.8h2.933l-.001-2.931z"/><g><rect class="cls-4" x="202.856" y="104.499" width="4.932" height="4.932" rx="1"/><path class="cls-1" d="M206.788 110.431h-2.932a2.002 2.002 0 0 1-2-2V105.5a2.002 2.002 0 0 1 2-2h2.932a2.002 2.002 0 0 1 2 2v2.931a2.002 2.002 0 0 1-2 2zm-2.932-4.931v2.931h2.933l-.001-2.931z"/></g><g><rect class="cls-4" x="212.18" y="104.499" width="4.932" height="4.932" rx="1"/><path class="cls-1" d="M216.112 110.431h-2.931a2.002 2.002 0 0 1-2-2V105.5a2.002 2.002 0 0 1 2-2h2.931a2.002 2.002 0 0 1 2 2v2.931a2.002 2.002 0 0 1-2 2zm-2.931-4.931v2.931h2.933l-.002-2.931z"/></g><g><rect class="cls-4" x="221.505" y="104.499" width="4.932" height="4.932" rx="1"/><path class="cls-1" d="M225.437 110.431h-2.932a2.002 2.002 0 0 1-2-2V105.5a2.002 2.002 0 0 1 2-2h2.932a2.002 2.002 0 0 1 2 2v2.931a2.002 2.002 0 0 1-2 2zm-2.932-4.931v2.931h2.933l-.001-2.931z"/></g><g><rect class="cls-4" x="230.83" y="104.499" width="4.932" height="4.932" rx="1"/><path class="cls-1" d="M234.761 110.431h-2.931a2.002 2.002 0 0 1-2-2V105.5a2.002 2.002 0 0 1 2-2h2.931a2.002 2.002 0 0 1 2 2v2.931a2.002 2.002 0 0 1-2 2zm-2.931-4.931v2.931h2.933l-.002-2.931z"/></g><g><rect class="cls-4" x="240.154" y="104.499" width="4.932" height="4.932" rx="1"/><path class="cls-1" d="M244.086 110.431h-2.932a2.002 2.002 0 0 1-2-2V105.5a2.002 2.002 0 0 1 2-2h2.932a2.002 2.002 0 0 1 2 2v2.931a2.002 2.002 0 0 1-2 2zm-2.932-4.931v2.931h2.933l-.001-2.931z"/></g></g><circle class="cls-3" cx="239.015" cy="126.071" r="16.31"/><g><rect class="cls-4" x="202.856" y="114.158" width="4.932" height="4.932" rx="1"/><path class="cls-1" d="M206.788 119.99h-2.932a1.902 1.902 0 0 1-1.9-1.9v-2.932a1.902 1.902 0 0 1 1.9-1.9h2.932a1.902 1.902 0 0 1 1.9 1.9v2.932a1.902 1.902 0 0 1-1.9 1.9zm-2.932-4.932a.1.1 0 0 0-.1.1v2.932a.1.1 0 0 0 .1.1h2.932a.1.1 0 0 0 .1-.1v-2.932a.1.1 0 0 0-.1-.1z"/><rect class="cls-4" x="212.18" y="114.158" width="4.932" height="4.932" rx="1"/><path class="cls-1" d="M216.112 119.99h-2.931a1.902 1.902 0 0 1-1.9-1.9v-2.932a1.902 1.902 0 0 1 1.9-1.9h2.931a1.902 1.902 0 0 1 1.9 1.9v2.932a1.902 1.902 0 0 1-1.9 1.9zm-2.931-4.932a.1.1 0 0 0-.1.1v2.932a.1.1 0 0 0 .1.1h2.931a.1.1 0 0 0 .1-.1v-2.932a.1.1 0 0 0-.1-.1z"/><rect class="cls-4" x="221.505" y="114.158" width="4.932" height="4.932" rx="1"/><path class="cls-1" d="M225.437 119.99h-2.932a1.902 1.902 0 0 1-1.9-1.9v-2.932a1.902 1.902 0 0 1 1.9-1.9h2.932a1.902 1.902 0 0 1 1.9 1.9v2.932a1.902 1.902 0 0 1-1.9 1.9zm-2.932-4.932a.1.1 0 0 0-.1.1v2.932a.1.1 0 0 0 .1.1h2.932a.1.1 0 0 0 .1-.1v-2.932a.1.1 0 0 0-.1-.1z"/><rect class="cls-4" x="227.359" y="114.348" width="8.064" height="8.064" rx="1"/><path class="cls-1" d="M234.423 123.884h-6.065a2.475 2.475 0 0 1-2.471-2.471v-6.065a2.475 2.475 0 0 1 2.471-2.472h6.065a2.475 2.475 0 0 1 2.472 2.472v6.065a2.475 2.475 0 0 1-2.472 2.471zm-5.593-2.943h5.121v-5.121h-5.12z"/><rect class="cls-4" x="242.606" y="114.348" width="8.064" height="8.064" rx="1"/><path class="cls-1" d="M249.67 123.884h-6.064a2.475 2.475 0 0 1-2.472-2.471v-6.065a2.475 2.475 0 0 1 2.472-2.472h6.064a2.475 2.475 0 0 1 2.472 2.472v6.065a2.475 2.475 0 0 1-2.472 2.471zm-5.592-2.943h5.12v-5.121h-5.12z"/><g><rect class="cls-4" x="202.856" y="123.788" width="4.932" height="4.932" rx="1"/><path class="cls-1" d="M206.788 129.62h-2.932a1.902 1.902 0 0 1-1.9-1.9v-2.932a1.902 1.902 0 0 1 1.9-1.9h2.932a1.902 1.902 0 0 1 1.9 1.9v2.932a1.902 1.902 0 0 1-1.9 1.9zm-2.932-4.933a.1.1 0 0 0-.1.1v2.933a.1.1 0 0 0 .1.1h2.932a.1.1 0 0 0 .1-.1v-2.932a.1.1 0 0 0-.1-.1z"/></g><g><rect class="cls-4" x="212.18" y="123.788" width="4.932" height="4.932" rx="1"/><path class="cls-1" d="M216.112 129.62h-2.931a1.902 1.902 0 0 1-1.9-1.9v-2.932a1.902 1.902 0 0 1 1.9-1.9h2.931a1.902 1.902 0 0 1 1.9 1.9v2.932a1.902 1.902 0 0 1-1.9 1.9zm-2.931-4.933a.1.1 0 0 0-.1.1v2.933a.1.1 0 0 0 .1.1h2.931a.1.1 0 0 0 .1-.1v-2.932a.1.1 0 0 0-.1-.1z"/></g><g><rect class="cls-4" x="227.359" y="130.095" width="8.064" height="8.064" rx="1"/><path class="cls-1" d="M234.423 139.63h-6.065a2.475 2.475 0 0 1-2.471-2.47v-6.065a2.475 2.475 0 0 1 2.471-2.472h6.065a2.475 2.475 0 0 1 2.472 2.472v6.064a2.475 2.475 0 0 1-2.472 2.472zm-5.593-2.942h5.121v-5.122h-5.12z"/></g><g><rect class="cls-4" x="242.606" y="130.095" width="8.064" height="8.064" rx="1"/><path class="cls-1" d="M249.67 139.63h-6.064a2.475 2.475 0 0 1-2.472-2.47v-6.065a2.475 2.475 0 0 1 2.472-2.472h6.064a2.475 2.475 0 0 1 2.472 2.472v6.064a2.475 2.475 0 0 1-2.472 2.472zm-5.592-2.942h5.12v-5.122h-5.12z"/></g><g><rect class="cls-3" x="254.977" y="140.519" width="7.927" height="18.176" rx="1.198" transform="rotate(-40.251 258.94 149.607)"/><path class="cls-1" d="M255.859 142.93l9.16 10.818-2.998 2.537-9.159-10.819 2.997-2.537m.092-2.327a1.192 1.192 0 0 0-.772.282l-4.222 3.574a1.201 1.201 0 0 0-.14 1.688l10.196 12.044a1.201 1.201 0 0 0 1.688.14l4.222-3.574a1.201 1.201 0 0 0 .14-1.688l-10.196-12.043a1.196 1.196 0 0 0-.916-.423z"/><path class="cls-1" d="M251.729 138.795l-2.263 1.916 3.332 3.935 2.262-1.916-3.331-3.935z"/><g><path class="cls-4" d="M253.787 113.564a19.356 19.356 0 1 0-2.266 27.28 19.356 19.356 0 0 0 2.266-27.28zm-6.673 22.074a12.535 12.535 0 1 1 1.467-17.667 12.535 12.535 0 0 1-1.467 17.667z"/><path class="cls-1" d="M239.005 108.715a17.357 17.357 0 1 1-11.205 4.11 17.335 17.335 0 0 1 11.205-4.11m.016 31.89a14.535 14.535 0 1 0-11.1-5.143 14.544 14.544 0 0 0 11.1 5.144m-.016-33.891a19.356 19.356 0 1 0 14.782 6.85 19.277 19.277 0 0 0-14.782-6.85zm.016 31.89a12.535 12.535 0 1 1 8.093-2.967 12.507 12.507 0 0 1-8.093 2.968z"/></g></g></g><g><rect class="cls-3" x="145.105" y="211.176" width="78.312" height="52.136" rx="1.339"/><path class="cls-1" d="M222.079 264.312h-75.635a2.342 2.342 0 0 1-2.339-2.34v-49.457a2.342 2.342 0 0 1 2.34-2.34h75.634a2.342 2.342 0 0 1 2.338 2.34v49.457a2.342 2.342 0 0 1-2.338 2.34zm-75.635-52.136a.339.339 0 0 0-.339.339v49.457a.34.34 0 0 0 .34.34h75.634a.34.34 0 0 0 .338-.34v-49.457a.339.339 0 0 0-.338-.34z"/><path class="cls-1" d="M222.87 257.71h-77.007a1 1 0 1 1 0-2h77.008a1 1 0 0 1 0 2zM194.84 274.708h-21.157a1 1 0 0 1-.637-1.771c.143-.122 3.606-3.105 3.827-9.528a1 1 0 1 1 1.999.069 16.518 16.518 0 0 1-2.977 9.23h16.95a19.953 19.953 0 0 1-3.19-9.086 1 1 0 1 1 1.991-.176 17.918 17.918 0 0 0 3.934 9.589 1 1 0 0 1-.74 1.673z"/><g><rect class="cls-5" x="161.174" y="223.897" width="11.807" height="11.807" rx="1.643"/><path class="cls-1" d="M170.981 225.897v7.807h-7.807v-7.807h7.807m.358-2h-8.522a1.643 1.643 0 0 0-1.643 1.643v8.521a1.643 1.643 0 0 0 1.643 1.643h8.522a1.643 1.643 0 0 0 1.642-1.643v-8.521a1.643 1.643 0 0 0-1.642-1.643z"/><path class="cls-1" d="M167.078 251.727a1 1 0 0 1-1-1v-16.064a1 1 0 0 1 2 0v16.064a1 1 0 0 1-1 1zM167.078 225.113a1 1 0 0 1-1-1v-5.72a1 1 0 0 1 2 0v5.72a1 1 0 0 1-1 1z"/><rect class="cls-5" x="178.509" y="233.989" width="11.807" height="11.807" rx="1.643"/><path class="cls-1" d="M188.316 235.989v7.807h-7.807v-7.807h7.807m.357-2h-8.522a1.642 1.642 0 0 0-1.642 1.642v8.522a1.643 1.643 0 0 0 1.642 1.643h8.522a1.643 1.643 0 0 0 1.643-1.643v-8.522a1.643 1.643 0 0 0-1.643-1.642z"/><path class="cls-1" d="M184.412 251.727a1 1 0 0 1-1-1v-5.523a1 1 0 0 1 2 0v5.523a1 1 0 0 1-1 1zM184.412 235.659a1 1 0 0 1-1-1v-16.266a1 1 0 0 1 2 0v16.266a1 1 0 0 1-1 1z"/><rect class="cls-5" x="195.843" y="223.279" width="11.807" height="11.807" rx="1.643"/><path class="cls-1" d="M205.65 225.28v7.806h-7.807v-7.807h7.807m.357-2h-8.521a1.643 1.643 0 0 0-1.643 1.643v8.522a1.643 1.643 0 0 0 1.643 1.642h8.521a1.643 1.643 0 0 0 1.643-1.642v-8.522a1.643 1.643 0 0 0-1.643-1.643z"/><path class="cls-1" d="M201.747 251.727a1 1 0 0 1-1-1v-16.236a1 1 0 0 1 2 0v16.236a1 1 0 0 1-1 1zM201.747 224.946a1 1 0 0 1-1-1v-5.553a1 1 0 0 1 2 0v5.553a1 1 0 0 1-1 1z"/></g></g></svg>